<svg id="customer-service" width="24" height="24" viewBox="0 0 24 24" fill="none" xmlns="http://www.w3.org/2000/svg">
<path d="M6.54791 10.5925C6.76556 10.593 6.97847 10.5294 7.1597 10.4098C7.34093 10.2901 7.48233 10.1197 7.56599 9.92016C7.64965 9.72064 7.67182 9.50096 7.62968 9.28892C7.58755 9.07688 7.48301 8.88202 7.3293 8.72901C7.17559 8.576 6.97961 8.47172 6.76618 8.42936C6.55276 8.387 6.33147 8.40847 6.13034 8.49105C5.9292 8.57364 5.75726 8.71362 5.63629 8.89329C5.51531 9.07295 5.45074 9.28422 5.45074 9.50034C5.45074 9.78954 5.56624 10.0669 5.77193 10.2717C5.97761 10.4764 6.25667 10.5918 6.54791 10.5925V10.5925Z" fill="currentColor"/>
<path d="M17.4521 10.5925C17.6697 10.593 17.8827 10.5294 18.0639 10.4098C18.2451 10.2901 18.3865 10.1197 18.4702 9.92016C18.5538 9.72064 18.576 9.50096 18.5339 9.28892C18.4917 9.07688 18.3872 8.88202 18.2335 8.72901C18.0798 8.576 17.8838 8.47172 17.6704 8.42936C17.4569 8.387 17.2357 8.40847 17.0345 8.49105C16.8334 8.57364 16.6614 8.71362 16.5405 8.89329C16.4195 9.07295 16.3549 9.28422 16.3549 9.50034C16.3549 9.78954 16.4704 10.0669 16.6761 10.2717C16.8818 10.4764 17.1609 10.5918 17.4521 10.5925V10.5925Z" fill="currentColor"/>
<path d="M20.8085 0.5H3.19424C2.34729 0.500711 1.53524 0.835116 0.93636 1.4298C0.33748 2.02449 0.000715627 2.83085 0 3.67186L0 15.3315C0.00142907 16.1723 0.338422 16.9783 0.937148 17.5728C1.53587 18.1673 2.34751 18.502 3.19424 18.5034H7.8883L11.4582 23.229C11.5214 23.312 11.603 23.3794 11.6968 23.4259C11.7905 23.4725 11.8938 23.4969 11.9987 23.4973H12.0149C12.1225 23.4932 12.2276 23.4638 12.3215 23.4116C12.4155 23.3594 12.4956 23.2857 12.5553 23.1968L15.709 18.5007H20.8085C21.6543 18.4986 22.4648 18.164 23.0629 17.5701C23.6609 16.9762 23.9979 16.1714 24 15.3315V3.67186C23.9993 2.83131 23.6629 2.02536 23.0646 1.43075C22.4663 0.836139 21.6549 0.501421 20.8085 0.5V0.5ZM1.3512 3.67186C1.35084 3.43142 1.39827 3.19328 1.49077 2.97108C1.58326 2.74888 1.71901 2.54699 1.89022 2.37698C2.06143 2.20696 2.26475 2.07217 2.48852 1.98032C2.71228 1.88848 2.9521 1.84138 3.19424 1.84173H20.8085C21.2956 1.84244 21.7626 2.03492 22.1071 2.37698C22.4515 2.71903 22.6454 3.18275 22.6461 3.66649V15.3315C22.6454 15.8153 22.4515 16.279 22.1071 16.621C21.7626 16.9631 21.2956 17.1556 20.8085 17.1563H15.355C15.2435 17.156 15.1336 17.183 15.0351 17.235C14.9365 17.2869 14.8524 17.3622 14.7902 17.4541L11.9662 21.6591L8.76928 17.4246C8.70621 17.3415 8.62458 17.274 8.5308 17.2274C8.43702 17.1808 8.33365 17.1565 8.2288 17.1563H3.19424C2.95256 17.1566 2.71318 17.1097 2.48976 17.0182C2.26635 16.9267 2.06327 16.7924 1.89213 16.6229C1.72099 16.4535 1.58513 16.2522 1.49232 16.0307C1.39951 15.8091 1.35155 15.5715 1.3512 15.3315V3.67186Z" fill="currentColor"/>
<path d="M12.0041 14.3413C12.8147 14.3362 13.6114 14.1322 14.3234 13.7473C15.0353 13.3625 15.6404 12.8088 16.0847 12.1355C16.1657 12.0062 16.1944 11.8512 16.1648 11.7018C16.1352 11.5523 16.0496 11.4196 15.9252 11.3305C15.7939 11.2469 15.6347 11.218 15.482 11.25C15.4056 11.2633 15.3327 11.2915 15.2673 11.333C15.2019 11.3744 15.1454 11.4283 15.101 11.4915C14.7697 12.0125 14.311 12.4418 13.7676 12.7393C13.2242 13.0367 12.6138 13.1927 11.9932 13.1927C11.3727 13.1927 10.7623 13.0367 10.2189 12.7393C9.67547 12.4418 9.21675 12.0125 8.88549 11.4915C8.82133 11.411 8.73894 11.3467 8.64502 11.3038C8.5511 11.2609 8.44831 11.2406 8.34501 11.2446C8.24623 11.2505 8.15068 11.2817 8.06776 11.3354C7.98484 11.389 7.91741 11.4632 7.87209 11.5505C7.82268 11.6451 7.8001 11.7513 7.80676 11.8576C7.81343 11.964 7.84908 12.0665 7.90992 12.1543C8.358 12.8256 8.96623 13.3766 9.68051 13.7581C10.3948 14.1397 11.193 14.34 12.0041 14.3413V14.3413Z" fill="currentColor"/>
</svg>
