<svg id="innovation" width="24" height="24" viewBox="0 0 24 24" fill="none" xmlns="http://www.w3.org/2000/svg">
<path d="M17.4781 2.19065C16.6804 1.42707 15.7347 0.839663 14.7008 0.465708C13.667 0.0917542 12.5677 -0.0605817 11.4726 0.0183688C9.89956 0.122345 8.39201 0.694608 7.13937 1.66324C5.88673 2.63188 4.9449 3.95366 4.43222 5.46249C3.91955 6.97132 3.85891 8.59986 4.25794 10.1435C4.65696 11.6871 5.49784 13.0769 6.6749 14.1382C6.97839 14.4178 7.22021 14.7591 7.38457 15.1397C7.54892 15.5204 7.63212 15.9318 7.62873 16.3472V16.9585C7.3869 17.0421 7.16799 17.1823 6.98984 17.3677C6.81169 17.5532 6.67932 17.7786 6.60353 18.0256C6.52774 18.2726 6.51067 18.5342 6.5537 18.7892C6.59673 19.0442 6.69864 19.2852 6.85115 19.4928C6.67164 19.7367 6.56256 20.0262 6.53606 20.3291C6.50955 20.632 6.56666 20.9365 6.70103 21.2085C6.83539 21.4805 7.04173 21.7094 7.29706 21.8697C7.55238 22.03 7.84667 22.1153 8.14711 22.1163H9.44308C9.58411 22.659 9.89962 23.1387 10.3398 23.4798C10.7801 23.8209 11.3199 24.0039 11.8743 24H12.0843C12.6385 24.0034 13.1782 23.8202 13.6183 23.4792C14.0584 23.1382 14.3741 22.6588 14.5155 22.1163H15.8115C16.1115 22.1144 16.4052 22.0284 16.6599 21.8679C16.9147 21.7074 17.1205 21.4787 17.2547 21.207C17.3889 20.9354 17.4462 20.6314 17.4202 20.3289C17.3942 20.0263 17.2859 19.7369 17.1074 19.4928C17.2593 19.2848 17.3608 19.0436 17.4035 18.7886C17.4462 18.5336 17.429 18.272 17.3533 18.025C17.2776 17.778 17.1455 17.5525 16.9677 17.3668C16.7899 17.181 16.5714 17.0402 16.3298 16.9558V16.3472C16.3341 15.921 16.4262 15.5004 16.6003 15.1124C16.7743 14.7243 17.0265 14.3773 17.3407 14.0936C18.1627 13.3457 18.8225 12.4334 19.2784 11.4142C19.7343 10.3951 19.9763 9.29128 19.9892 8.17262C20.0021 7.05395 19.7856 5.94474 19.3534 4.91509C18.9212 3.88544 18.2826 2.95775 17.4781 2.19065V2.19065ZM13.1806 22.0035C13.0786 22.2036 12.9245 22.3718 12.7349 22.4897C12.5453 22.6076 12.3275 22.6708 12.105 22.6725H11.895C11.6724 22.6717 11.4542 22.6088 11.2645 22.4908C11.0747 22.3728 10.9207 22.2042 10.8194 22.0035H13.1806ZM8.16526 20.167C8.2545 20.1672 8.34279 20.1484 8.42445 20.1119H15.573C15.6547 20.1482 15.743 20.167 15.8322 20.167C15.8756 20.163 15.9194 20.1682 15.9607 20.1823C16.002 20.1964 16.0399 20.219 16.0721 20.2487C16.1043 20.2785 16.13 20.3147 16.1476 20.3551C16.1652 20.3954 16.1743 20.4391 16.1743 20.4832C16.1743 20.5273 16.1652 20.5709 16.1476 20.6113C16.13 20.6517 16.1043 20.6879 16.0721 20.7176C16.0399 20.7474 16.002 20.77 15.9607 20.7841C15.9194 20.7981 15.8756 20.8033 15.8322 20.7993H13.966C13.9206 20.7995 13.8754 20.8048 13.8312 20.815H10.1688C10.1237 20.8049 10.0777 20.7996 10.0314 20.7993H8.16526C8.08733 20.7921 8.01488 20.7557 7.96212 20.6972C7.90937 20.6387 7.88012 20.5624 7.88012 20.4832C7.88012 20.404 7.90937 20.3276 7.96212 20.2691C8.01488 20.2106 8.08733 20.1742 8.16526 20.167ZM15.8322 18.8395C15.7277 18.8402 15.6248 18.8653 15.5315 18.913H8.46851C8.3831 18.8691 8.28946 18.8441 8.19377 18.8395H8.16526C8.08733 18.8323 8.01488 18.7959 7.96212 18.7374C7.90937 18.6789 7.88012 18.6026 7.88012 18.5234C7.88012 18.4442 7.90937 18.3679 7.96212 18.3094C8.01488 18.2509 8.08733 18.2145 8.16526 18.2073H8.20932C8.23687 18.2107 8.26472 18.2107 8.29226 18.2073H15.7078C15.7345 18.2108 15.7615 18.2108 15.7881 18.2073H15.8322C15.8756 18.2033 15.9194 18.2085 15.9607 18.2225C16.002 18.2366 16.0399 18.2592 16.0721 18.289C16.1043 18.3187 16.13 18.3549 16.1476 18.3953C16.1652 18.4356 16.1743 18.4793 16.1743 18.5234C16.1743 18.5675 16.1652 18.6111 16.1476 18.6515C16.13 18.6919 16.1043 18.7281 16.0721 18.7578C16.0399 18.7876 16.002 18.8102 15.9607 18.8243C15.9194 18.8383 15.8756 18.8435 15.8322 18.8395V18.8395ZM16.4905 13.1176C16.0409 13.526 15.6805 14.0249 15.4323 14.5823C15.1842 15.1398 15.0538 15.7436 15.0494 16.3551V17.0162H8.94802V16.3472C8.94998 15.7441 8.82635 15.1473 8.58519 14.5959C8.34402 14.0444 7.99074 13.5505 7.54838 13.1465C6.53951 12.2342 5.82773 11.0336 5.50703 9.70334C5.18633 8.37305 5.2718 6.97558 5.75214 5.69548C6.23248 4.41538 7.0851 3.31284 8.19742 2.53345C9.30975 1.75407 10.6295 1.33449 11.9823 1.33012C13.3351 1.32575 14.6574 1.73681 15.7747 2.509C16.8919 3.28119 17.7514 4.3782 18.2398 5.65518C18.7282 6.93216 18.8225 8.32904 18.5102 9.66138C18.1978 10.9937 17.4936 12.1988 16.4905 13.1176Z" fill="currentColor"/>
<path d="M17.9627 7.45869C17.9627 7.42983 17.9472 7.40097 17.9342 7.36424C17.9266 7.33368 17.9143 7.30448 17.8979 7.27766C17.2376 6.2452 16.3606 5.37273 15.3293 4.72235C14.3286 4.09482 13.1747 3.76236 11.9974 3.76236C10.8202 3.76236 9.66625 4.09482 8.66548 4.72235C7.63592 5.37296 6.75997 6.24436 6.09946 7.27504C6.08255 7.30252 6.07029 7.33267 6.06318 7.36424C6.04531 7.4052 6.0331 7.44846 6.02689 7.49279C6.02689 7.52165 6.02689 7.54789 6.02689 7.57675C6.02343 7.61602 6.02343 7.65553 6.02689 7.6948C6.03567 7.7268 6.04605 7.75832 6.05799 7.78925C6.06521 7.81543 6.07476 7.84089 6.0865 7.86533C6.74629 8.90463 7.62748 9.78132 8.66548 10.4311C9.66588 11.0571 10.8187 11.3886 11.9948 11.3886C13.1709 11.3886 14.3238 11.0571 15.3242 10.4311C16.3567 9.77562 17.2373 8.90221 17.9057 7.87058C17.9182 7.84764 17.9269 7.82284 17.9316 7.79712C17.945 7.76879 17.9546 7.73879 17.9601 7.70792C17.9657 7.66701 17.9657 7.62553 17.9601 7.58462C17.966 7.5429 17.9669 7.50062 17.9627 7.45869V7.45869ZM8.52033 8.84391C8.07776 8.46917 7.67942 8.04397 7.33322 7.57675C7.6807 7.10501 8.08078 6.67541 8.52551 6.29647C8.23513 7.11748 8.23513 8.01503 8.52551 8.83604L8.52033 8.84391ZM9.36012 7.57412C9.36186 7.004 9.54292 6.44925 9.87706 5.99028C10.2112 5.53131 10.6811 5.19197 11.2185 5.02143C11.3481 5.00307 11.4777 4.98733 11.6047 4.97683H11.711H11.8458H12.0013C12.0998 4.97683 12.1957 4.97683 12.2916 4.97683H12.3901C12.5145 4.97683 12.6493 5.00044 12.7607 5.01881C13.3035 5.18385 13.7793 5.52155 14.1175 5.98184C14.4557 6.44212 14.6383 7.00049 14.6383 7.57412C14.6383 8.14776 14.4557 8.70612 14.1175 9.16641C13.7793 9.62669 13.3035 9.9644 12.7607 10.1294C12.2513 10.2081 11.7331 10.2081 11.2237 10.1294C10.6851 9.95933 10.214 9.61989 9.87889 9.16039C9.54377 8.70089 9.36206 8.14525 9.36012 7.57412V7.57412ZM15.6974 7.57412C15.6971 7.13835 15.6217 6.70597 15.4745 6.29647C15.918 6.67294 16.3172 7.09989 16.6642 7.56888C16.3191 8.03618 15.9216 8.46141 15.4797 8.83604C15.6235 8.43122 15.6971 8.00431 15.6974 7.57412V7.57412Z" fill="currentColor"/>
<path d="M13.6342 7.57411C13.6342 7.24659 13.5382 6.92642 13.3584 6.65413C13.1786 6.38183 12.923 6.16965 12.624 6.04443C12.325 5.91921 11.996 5.88658 11.6787 5.95067C11.3614 6.01476 11.0699 6.17269 10.8413 6.40447C10.6127 6.63625 10.4571 6.93147 10.3943 7.25276C10.3315 7.57406 10.3643 7.907 10.4884 8.20944C10.6126 8.51189 10.8227 8.77025 11.092 8.95184C11.3613 9.13343 11.6777 9.23008 12.0013 9.22956C12.4346 9.22886 12.8499 9.05414 13.1561 8.74376C13.4623 8.43338 13.6342 8.01271 13.6342 7.57411V7.57411Z" fill="currentColor"/>
</svg>
