<svg id="shipping" width="24" height="24" viewBox="0 0 24 24" fill="none" xmlns="http://www.w3.org/2000/svg">
<path fill-rule="evenodd" clip-rule="evenodd" d="M10.9284 2.25666C11.2541 2.08853 11.6237 2 12 2C12.3763 2 12.7459 2.08853 13.0716 2.25666L20.9284 6.29961C21.254 6.46794 21.5243 6.70951 21.7123 7.00018C21.9004 7.29086 21.9996 7.62044 22 7.95601V16.044C21.9996 16.3796 21.9004 16.7091 21.7123 16.9998C21.5243 17.2905 21.254 17.5321 20.9284 17.7004L13.0716 21.7433C12.7459 21.9115 12.3763 22 12 22C11.6237 22 11.2541 21.9115 10.9284 21.7433L3.0716 17.7004C2.74602 17.5321 2.4757 17.2905 2.28765 16.9998C2.0996 16.7091 2.00041 16.3796 2 16.044L2 7.95601C2.00041 7.62044 2.0996 7.29086 2.28765 7.00018C2.4757 6.70951 2.74602 6.46794 3.0716 6.29961L10.9284 2.25666ZM12.358 3.36023C12.2496 3.30295 12.126 3.27272 12 3.27272C11.874 3.27272 11.7504 3.30295 11.642 3.36023L3.83435 7.38023L11.642 11.3981C11.7504 11.4554 11.874 11.4857 12 11.4857C12.126 11.4857 12.2496 11.4554 12.358 11.3981L20.1657 7.38023L12.358 3.36023ZM3.42957 16.044V8.64235L10.9284 12.5017C11.0422 12.5612 11.162 12.6107 11.2864 12.6498V20.2851C11.2856 20.348 11.2959 20.4107 11.3168 20.4708L3.78755 16.6031C3.67668 16.5475 3.58481 16.4662 3.52175 16.3677C3.4587 16.2692 3.42684 16.1574 3.42957 16.044ZM12.6832 20.4708L20.2124 16.6031C20.3219 16.5482 20.4129 16.4682 20.4758 16.3713C20.5388 16.2744 20.5715 16.1643 20.5704 16.0523V12.3473V8.64235L13.0716 12.5017C12.9578 12.5612 12.838 12.6107 12.7136 12.6498V20.2851C12.7144 20.348 12.7041 20.4107 12.6832 20.4708Z" fill="currentColor"/>
<path d="M16.2325 4L7 9.22473L7.67918 10.2636L16.9116 5.03888L16.2325 4Z" fill="currentColor"/>
</svg>
