<svg id="warranty" width="24" height="24" viewBox="0 0 24 24" fill="none" xmlns="http://www.w3.org/2000/svg">
<path d="M20.9724 3.8423C20.9525 3.69615 20.8826 3.56239 20.7756 3.46568C20.6685 3.36897 20.5314 3.31584 20.3897 3.31608C17.0604 3.31608 14.5265 2.30894 12.411 0.173818C12.3013 0.062619 12.1542 0.000396729 12.0011 0.000396729C11.8481 0.000396729 11.701 0.062619 11.5913 0.173818C9.47092 2.3165 6.93707 3.31608 3.60777 3.31608C3.46603 3.31584 3.32898 3.36897 3.2219 3.46568C3.11481 3.56239 3.04491 3.69615 3.02508 3.8423L2.10148 10.6405C1.81884 12.6791 2.12828 14.7591 2.99001 16.6131C3.85174 18.4671 5.22635 20.0103 6.93707 21.0441L11.7025 23.9195C11.7925 23.9739 11.8947 24.0026 11.9987 24.0026C12.1028 24.0026 12.2049 23.9739 12.2949 23.9195L17.0531 21.0316C18.7634 19.9979 20.1377 18.4551 20.9995 16.6016C21.8612 14.7481 22.1708 12.6686 21.8887 10.6304L20.9724 3.8423ZM16.468 19.9741L11.9999 22.6606L7.53185 19.9741C6.02242 19.0638 4.80942 17.7035 4.04924 16.0686C3.28906 14.4338 3.01656 12.5992 3.26686 10.8016L4.12034 4.53219C7.31908 4.43903 9.8481 3.44952 11.9999 1.45288C14.1518 3.45204 16.6784 4.43903 19.8916 4.53219L20.7451 10.8016C20.9943 12.6006 20.7199 14.436 19.9575 16.071C19.1952 17.706 17.9797 19.0655 16.468 19.9741V19.9741Z" fill="currentColor"/>
<path d="M18.7263 6.3525C18.7073 6.21664 18.645 6.09137 18.5494 5.99684C18.4538 5.9023 18.3305 5.844 18.1992 5.8313C16.0833 5.62125 14.0566 4.8402 12.3191 3.56525C12.2196 3.49141 12.1004 3.45172 11.9782 3.45172C11.856 3.45172 11.7369 3.49141 11.6373 3.56525C9.90174 4.84417 7.87584 5.62956 5.75967 5.84389C5.63027 5.85839 5.50925 5.91759 5.41591 6.01205C5.32258 6.10651 5.2623 6.2308 5.24468 6.36509L4.61847 11.0055C4.41059 12.5232 4.64516 14.071 5.29179 15.4483C5.93841 16.8256 6.96731 17.9689 8.24516 18.7302L11.7123 20.8326C11.8026 20.8857 11.9047 20.9137 12.0085 20.9137C12.1123 20.9137 12.2143 20.8857 12.3046 20.8326L15.7693 18.7302C17.0396 17.9634 18.0603 16.8181 18.6998 15.4417C19.3393 14.0654 19.5683 12.5211 19.3574 11.008L18.7263 6.3525ZM15.1721 17.6828L12 19.5938L8.82785 17.6702C7.75931 17.0262 6.9004 16.0637 6.36176 14.9069C5.82312 13.75 5.62942 12.4517 5.80561 11.1792L6.37863 6.98699C8.38824 6.71248 10.311 5.96323 12 4.79647C13.689 5.96323 15.6118 6.71248 17.6214 6.98699L18.1992 11.1792C18.375 12.4522 18.1805 13.7509 17.641 14.9078C17.1015 16.0647 16.2416 17.0269 15.1721 17.6702V17.6828Z" fill="currentColor"/>
<path d="M15.8104 8.7268C15.7608 8.66125 15.6971 8.60867 15.6245 8.57326C15.5519 8.53786 15.4723 8.5206 15.3922 8.52286C15.3118 8.52253 15.2324 8.54116 15.16 8.57736C15.0876 8.61355 15.0239 8.66637 14.9739 8.73184L11.7389 12.8913L10.3414 11.582C10.289 11.5322 10.2276 11.4938 10.1607 11.4691C10.0939 11.4445 10.0229 11.4341 9.95213 11.4385C9.84543 11.4443 9.74279 11.4829 9.65723 11.5496C9.57167 11.6162 9.50704 11.7078 9.47155 11.8127C9.43606 11.9177 9.43131 12.0312 9.4579 12.139C9.48448 12.2467 9.54122 12.3438 9.62089 12.4179L11.4415 14.115C11.4956 14.1661 11.5592 14.2053 11.6284 14.2299C11.6976 14.2546 11.7709 14.2643 11.8438 14.2584C11.9167 14.2525 11.9877 14.2311 12.0524 14.1956C12.1171 14.1602 12.1741 14.1113 12.22 14.052L15.3632 10.0235C15.8147 10.8557 15.9675 11.8279 15.7941 12.7666C15.6206 13.7052 15.1324 14.5491 14.4165 15.1473C13.7007 15.7456 12.8039 16.0593 11.8863 16.0324C10.9688 16.0055 10.0904 15.6397 9.40801 15.0005C8.72562 14.3612 8.28374 13.49 8.16133 12.5427C8.03892 11.5954 8.24396 10.6336 8.7398 9.82924C9.23564 9.02485 9.98999 8.43028 10.868 8.15175C11.7461 7.87323 12.6906 7.92891 13.5329 8.30884C13.6628 8.3612 13.8072 8.35915 13.9357 8.3031C14.0642 8.24705 14.1669 8.14136 14.2223 8.0082C14.2776 7.87503 14.2813 7.72473 14.2326 7.5888C14.1838 7.45286 14.0864 7.34186 13.9608 7.27905C12.851 6.77927 11.6036 6.72079 10.4551 7.1147C9.30665 7.5086 8.33679 8.32752 7.72933 9.4163C7.12188 10.5051 6.91902 11.7881 7.15919 13.0222C7.39936 14.2563 8.06588 15.3558 9.03247 16.1124C9.99905 16.869 11.1985 17.2301 12.4037 17.1272C13.6088 17.0244 14.7359 16.4648 15.5713 15.5545C16.4068 14.6442 16.8925 13.4463 16.9366 12.188C16.9807 10.9296 16.58 9.69809 15.8104 8.7268V8.7268Z" fill="currentColor"/>
</svg>
