<?xml version="1.0" encoding="UTF-8" standalone="no"?>
<svg
   width="135pt"
   height="135pt"
   viewBox="0 0 135 135"
   version="1.1"
   id="svg2"
   sodipodi:docname="favicon.svg"
   inkscape:version="1.3.2 (091e20e, 2023-11-25, custom)"
   xmlns:inkscape="http://www.inkscape.org/namespaces/inkscape"
   xmlns:sodipodi="http://sodipodi.sourceforge.net/DTD/sodipodi-0.dtd"
   xmlns="http://www.w3.org/2000/svg"
   xmlns:svg="http://www.w3.org/2000/svg">
  <defs
     id="defs2" />
  <sodipodi:namedview
     id="namedview2"
     pagecolor="#ffffff"
     bordercolor="#000000"
     borderopacity="0.25"
     inkscape:showpageshadow="2"
     inkscape:pageopacity="0.0"
     inkscape:pagecheckerboard="0"
     inkscape:deskcolor="#d1d1d1"
     inkscape:document-units="pt"
     inkscape:zoom="4.3476729"
     inkscape:cx="89.93317"
     inkscape:cy="90.048174"
     inkscape:window-width="1920"
     inkscape:window-height="1017"
     inkscape:window-x="-8"
     inkscape:window-y="-8"
     inkscape:window-maximized="1"
     inkscape:current-layer="svg2" />
  <g
     id="surface2"
     transform="translate(-9,1.5)">
    <path
       style="fill:#cad4de;fill-opacity:1;fill-rule:evenodd;stroke:none"
       d="m 73.300781,4.128906 c -0.585937,1.777344 -0.371093,37.324219 0.226563,37.097656 0.316406,-0.121093 0.402344,-4.265624 0.402344,-19.242187 0,-10.5 -0.05078,-19.089844 -0.109376,-19.089844 -0.0625,0 -0.292968,0.554688 -0.519531,1.234375 M 63.535156,3.457031 c -0.08203,0.132813 -0.191406,8.484375 -0.246094,18.5625 -0.05469,10.074219 -0.222656,18.585938 -0.378906,18.90625 C 62.675781,41.421875 62.75,41.5 63.375,41.410156 l 0.75,-0.105468 0.0625,-19.046876 C 64.246094,5.21875 64.148438,2.449219 63.535156,3.457031 m 24.335938,0.144531 c -0.132813,0.214844 -0.273438,8.667969 -0.3125,18.785157 -0.03516,10.117187 -0.164063,18.546875 -0.277344,18.734375 -0.125,0.199218 0.06641,0.34375 0.449219,0.34375 0.660156,0 0.664062,-0.03125 0.664062,-19.125 0,-10.519532 -0.06641,-19.125 -0.144531,-19.125 -0.07813,0 -0.25,0.175781 -0.378906,0.386718 M 83.078125,4.59375 c -0.101563,0.402344 -0.05469,6.082031 0.101563,12.613281 L 83.46875,29.089844 83.51953,16.472656 C 83.54687,9.535156 83.5039,3.855469 83.417968,3.855469 c -0.08594,0 -0.238281,0.332031 -0.339844,0.738281 m -14.785156,6.574219 c -0.269531,7.808593 0.03906,28.363281 0.433593,28.757812 0.136719,0.140625 0.246094,-7.847656 0.234376,-17.746093 -0.0078,-9.902344 -0.105469,-18 -0.21875,-18 -0.113282,0 -0.316407,3.144531 -0.449219,6.988281 m 15.007812,23.0625 c -0.04687,2.300781 -0.203125,4.867187 -0.339843,5.707031 -0.140626,0.847656 -0.125,1.527344 0.02734,1.527344 0.53125,0 0.597657,-0.839844 0.503907,-6.121094 l -0.09766,-5.289062 -0.09375,4.175781 m -24.386719,4.824219 c 0,0.882812 0.0625,1.207031 0.136719,0.71875 0.07422,-0.488282 0.07422,-1.214844 -0.0039,-1.609376 -0.07422,-0.394531 -0.136719,0.0039 -0.132813,0.890626 M 53.4375,41.371094 c 0.484375,0.07422 1.28125,0.07422 1.769531,0 0.484375,-0.07031 0.08594,-0.132813 -0.886719,-0.132813 -0.972656,0 -1.367187,0.0625 -0.882812,0.132813 m 40.339844,0 c 0.398437,0.07422 1.046875,0.07422 1.445312,0 0.398438,-0.07813 0.07422,-0.140625 -0.722656,-0.140625 -0.796875,0 -1.121094,0.0625 -0.722656,0.140625 m -40.097656,4.109375 c 0,0.726562 0.128906,0.804687 1.285156,0.804687 H 56.25 V 81 h -2.570312 v 11.570312 h 4.925781 c 2.710937,0 5.015625,-0.08594 5.125,-0.191406 0.234375,-0.238281 22.433593,-0.214844 22.671875,0.02344 0.09375,0.09375 2.386718,0.167968 5.097656,0.167968 h 4.929688 V 81 H 93.855469 V 46.285156 h 1.289062 c 1.035157,0 1.285157,-0.113281 1.285157,-0.59375 0,-0.914062 -2.160157,-1.007812 -23.546876,-1.011718 H 53.679688 v 0.800781 m 10.753906,4.488281 c -0.742188,0.742188 -0.789063,0.996094 -0.789063,4.339844 v 3.546875 h 22.820313 v -3.492188 c 0,-3.046875 -0.08594,-3.597656 -0.667969,-4.335937 C 85.25,49.328125 84.871094,49.179688 83.628906,49.179688 l -1.503906,-0.0039 0.101562,3.214844 c 0.09766,3.117187 0.08203,3.214844 -0.597656,3.214844 -0.679687,0 -0.695312,-0.07422 -0.53125,-3.210938 l 0.167969,-3.214843 h -3.800781 v 3.214843 c 0,3 -0.04297,3.210938 -0.644532,3.210938 -0.597656,0 -0.640624,-0.210938 -0.640624,-3.210938 v -3.214843 h -5.480469 c -5.386719,0 -5.492188,0.01172 -6.265625,0.789062 m 7.648437,2.636719 c -0.238281,0.09766 -0.402343,0.75 -0.402343,1.605469 0,1.199218 0.09375,1.425781 0.5625,1.335937 0.421874,-0.07813 0.585937,-0.480469 0.660156,-1.628906 0.09375,-1.492188 0,-1.644531 -0.820313,-1.3125 m -5.417969,0.5625 c -0.335937,0.867187 0.01563,2.269531 0.59375,2.378906 0.46875,0.08984 0.5625,-0.136719 0.5625,-1.363281 0,-1.105469 -0.121093,-1.46875 -0.492187,-1.46875 -0.269531,0 -0.570313,0.203125 -0.664063,0.453125 M 47.34375,60.269531 c 0,0.882813 0.0625,1.207031 0.136719,0.71875 0.07422,-0.492187 0.07031,-1.214843 -0.0039,-1.609375 -0.07812,-0.394531 -0.136718,0.0039 -0.132812,0.890625 M 63.644531,75.375 V 89.355469 H 83.570312 V 64.25 l 1.449219,-0.640625 c 1.144531,-0.507813 1.445313,-0.800781 1.445313,-1.429687 V 61.394531 H 81.78125 c -3.40625,0 -4.789062,0.109375 -5.0625,0.410157 -4.296875,4.683593 -5.394531,5.6875 -6.246094,5.691406 -0.683594,0.0039 -1.6875,-1.242188 -1.6875,-2.097656 0,-0.53125 0.527344,-1.382813 1.492188,-2.414063 l 1.488281,-1.589844 H 63.644531 V 75.375 M 25.800781,64.929688 c 0,0.792968 0.0625,1.121093 0.140625,0.722656 0.07813,-0.398438 0.07813,-1.050782 0,-1.445313 -0.07813,-0.398437 -0.140625,-0.07422 -0.140625,0.722657 m 48.058594,4.574218 c -2.597656,2.699219 -4.902344,5.324219 -5.117187,5.835938 -0.542969,1.289062 0.167968,2.570312 1.5,2.695312 0.851562,0.08203 1.453124,-0.429687 5.613281,-4.769531 2.566406,-2.671875 4.820312,-5.148437 5.011719,-5.507813 0.699218,-1.289062 -0.351563,-3.144531 -1.785157,-3.152343 -0.273437,-0.0039 -2.621093,2.203125 -5.222656,4.898437 M 45.996094,67.179688 c 0.05469,2.09375 0.109375,2.25 0.773437,2.25 0.597657,0 0.746094,-0.222657 0.898438,-1.355469 0.28125,-2.109375 -0.03125,-3.144531 -0.953125,-3.144531 -0.75,0 -0.773438,0.07031 -0.71875,2.25 m 56.574216,0 c 0.0469,1.945312 0.13672,2.25 0.64453,2.25 0.41407,0 0.52735,0.15625 0.38282,0.535156 -0.125,0.324218 -0.0781,0.453125 0.125,0.328125 0.35937,-0.222657 0.77734,-4.25 0.51562,-4.941407 -0.0898,-0.230468 -0.51562,-0.421874 -0.94531,-0.421874 -0.75781,0 -0.77734,0.06641 -0.72266,2.25 m -76.769529,3.855468 c 0,0.796875 0.0625,1.121094 0.140625,0.722656 0.07813,-0.398437 0.07813,-1.046874 0,-1.445312 -0.07813,-0.398438 -0.140625,-0.07422 -0.140625,0.722656 m 52.742188,4.59375 c -0.832031,0.46875 -9.253907,9.351563 -9.855469,10.390625 -0.207031,0.363281 0.210938,0.445313 2.277344,0.445313 H 73.5 l 1.722656,-1.847656 c 0.949219,-1.019532 2.710938,-2.882813 3.910156,-4.144532 2.402344,-2.523437 2.628907,-3.242187 1.398438,-4.46875 -0.890625,-0.894531 -1.03125,-0.917968 -1.988281,-0.375 M 62.738281,98.917969 c 0.02734,2.339841 0.117188,2.644531 1.460938,4.984371 l 1.433593,2.48829 6.15625,-0.20704 c 3.886719,-0.13281 6.246094,-0.33984 6.398438,-0.5625 0.167969,-0.24609 0.324219,-0.22656 0.519531,0.0781 0.152344,0.23437 0.621094,0.37891 1.042969,0.32031 0.765625,-0.10937 0.769531,-0.11719 0.824219,-4.85156 l 0.05859,-4.738282 H 62.710938 l 0.02734,2.488281 m -3.503906,0.5625 c 0.0039,0.886721 0.06641,1.207031 0.140625,0.718751 0.07031,-0.488282 0.07031,-1.210939 -0.0039,-1.60547 -0.07813,-0.394531 -0.136719,0.0039 -0.136719,0.886719 m 7.945313,9.375001 c 0,0.13281 0.828124,1.72656 1.839843,3.54687 l 1.84375,3.3125 4.183594,-0.008 4.183594,-0.004 1.769531,-3.25 c 0.972656,-1.78516 1.8125,-3.35938 1.867188,-3.5 0.05078,-0.14063 -3.457032,-0.26954 -7.796876,-0.29297 -4.339843,-0.0234 -7.890624,0.0664 -7.890624,0.19531 m 5.386718,10.15234 c 0.101563,0.39844 0.546875,1.375 0.988282,2.17188 1.546874,2.80078 1.371093,2.75 2.53125,0.71484 0.578124,-1.01172 1.050781,-1.92969 1.054687,-2.03906 0,-0.10938 -0.671875,-0.27734 -1.492187,-0.36719 -0.898438,-0.10156 -1.609376,-0.375 -1.785157,-0.6875 -0.15625,-0.28125 -0.558593,-0.51562 -0.886719,-0.51562 -0.457031,0 -0.550781,0.16797 -0.410156,0.72265"
       id="path1" />
    <path
       style="fill:#333f51;fill-opacity:1;fill-rule:evenodd;stroke:none"
       d="M 59.507812,2.683594 C 59.253906,2.984375 59.125,8.753906 59.066406,22.203125 l -0.08594,19.09375 -3.519531,0.09375 c -4.605469,0.121094 -4.675782,0.179687 -4.675782,4.03125 V 48.3125 l 1.285156,1.222656 1.285157,1.226563 v 6.691406 l -2.398438,0.152344 c -1.320312,0.08594 -2.621093,0.339843 -2.890625,0.5625 C 47.75,58.433594 47.570312,59.125 47.570312,60.101562 V 61.625 l -1.789062,0.183594 c -2.738281,0.28125 -2.710938,0.21875 -2.710938,5.867187 0,4.820313 0.01563,4.9375 0.832032,5.90625 0.667968,0.792969 1.082031,0.988281 2.085937,0.988281 1.066407,0 1.277344,0.121094 1.453125,0.804688 0.324219,1.308594 1.902344,2.410156 3.441406,2.410156 1.296876,0 1.3125,0.01563 0.617188,0.5 -0.707031,0.496094 -0.714844,0.597656 -0.714844,8.53125 v 8.03125 l 1.234375,1.320313 1.234375,1.324219 3.023438,0.191406 3.027344,0.191406 0.0039,2.41016 c 0.0039,2 0.148437,2.66015 0.835937,3.85937 3.015625,5.25781 4.722657,8.17578 7.515625,12.85547 1.742188,2.91797 3.808594,6.42578 4.589844,7.79688 2.296875,4.01562 3.792969,4.83593 5.375,2.95703 0.355469,-0.42188 3.746094,-6.01563 7.542969,-12.42969 l 6.898437,-11.66406 0.171875,-2.89063 0.171875,-2.89453 3.101563,-0.183594 c 3.449219,-0.199218 4.609367,-0.699218 5.003907,-2.152344 0.13281,-0.480468 0.24218,-4.160156 0.24609,-8.171874 l 0.008,-7.292969 -2.218745,-2.289063 h 2.152345 c 2.29687,0 3.4414,-0.621094 3.4414,-1.863281 0,-0.894531 0.65625,-1.351563 1.94141,-1.351563 0.78125,0 1.375,-0.222656 1.78515,-0.675781 0.54297,-0.597656 0.60938,-1.203125 0.60938,-5.328125 v -4.652344 l -1.19922,-1.097656 c -0.8125,-0.746094 -1.51562,-1.101562 -2.16797,-1.101562 -0.86328,0 -0.96875,-0.105469 -0.96875,-0.96875 0,-0.636719 -0.33203,-1.3125 -0.97656,-1.988282 -0.83594,-0.871093 -1.25781,-1.042968 -2.85547,-1.15625 l -1.878902,-0.136718 -0.199219,-1.457032 c -0.476563,-3.488281 -0.136719,-5.125 1.214844,-5.847656 1.082027,-0.578125 1.613277,-2.484375 1.351557,-4.839844 -0.17187,-1.527343 -0.375,-1.933593 -1.507807,-3.007812 -1.304688,-1.238281 -1.3125,-1.238281 -3.316407,-1.023438 -1.105468,0.117188 -2.410156,0.113282 -2.902343,-0.0078 l -0.890625,-0.222656 0.08594,-14.664063 C 92.3125,18.332031 92.328125,9.964844 92.300781,7.808594 92.25,3.972656 92.230469,3.863281 91.371094,3.066406 90.421875,2.1875 89.398438,2.015625 88.777344,2.636719 c -0.289063,0.289062 -0.382813,5.085937 -0.382813,19.605469 0,19.191406 -0.0039,19.222656 -0.664062,19.222656 -0.390625,0 -0.574219,-0.140625 -0.445313,-0.347656 0.304688,-0.496094 0.378906,-36.296876 0.07422,-36.296876 -0.136719,0 -0.253906,-0.210937 -0.253906,-0.46875 0,-1.28125 -2.980469,-2.753906 -3.394531,-1.679687 -0.08984,0.234375 -0.195313,9.007813 -0.230469,19.5 C 83.425781,36.824219 83.320312,41.28125 83.019531,41.378906 82.714844,41.480469 82.625,37.570312 82.613281,23.824219 82.605469,14.097656 82.507812,5.660156 82.398438,5.078125 81.988281,2.886719 79.542969,1.414062 78.757812,2.882812 78.53125,3.300781 78.425781,9.738281 78.433594,22.246094 c 0.01563,16.601562 -0.03906,18.746094 -0.476563,18.839844 -0.4375,0.09375 -0.492187,-1.941407 -0.492187,-18.550782 V 3.882812 L 76.582031,3.058594 c -0.5625,-0.527344 -1.179687,-0.796875 -1.6875,-0.738282 l -0.804687,0.089844 -0.08203,19.269532 C 73.925781,40.839844 73.867188,41.859375 72.894531,41.261719 72.75,41.171875 72.671875,32.800781 72.71875,22.660156 L 72.80469,4.222656 71.859377,3.234375 C 70.8125,2.140625 69.601562,1.953125 69.164062,2.8125 c -0.15625,0.3125 -0.253906,8.625 -0.210937,18.722656 0.03516,9.988282 0,18.488282 -0.08594,18.882813 -0.08203,0.398437 -0.351563,0.726562 -0.597657,0.726562 -0.378906,0 -0.449219,-2.925781 -0.449219,-18.585937 V 3.976562 L 66.917969,3.113281 C 66.003906,2.234375 64.8125,1.980469 64.441406,2.582031 c -0.113281,0.179688 -0.230468,8.96875 -0.261718,19.527344 l -0.05469,19.195313 -0.75,0.105468 c -0.621094,0.08594 -0.703125,0.0078 -0.480469,-0.484375 0.265625,-0.589843 0.289063,-3.953125 0.171875,-25.230469 L 63,4.226562 62.167969,3.238281 C 61.285156,2.191406 60.117188,1.945312 59.507812,2.683594 m -6.152343,20.195312 c -2.273438,1.382813 -5.3125,3.328125 -5.785157,3.703125 -0.265624,0.210938 -1.277343,0.972657 -2.25,1.691407 -3.785156,2.800781 -9.253906,8.886718 -12.144531,13.511718 -3.050781,4.886719 -5.5,11.460938 -6.703125,18 -0.617187,3.351563 -0.703125,12.804688 -0.140625,15.589844 0.785157,3.882812 2.464844,9.6875 3,10.367188 0.175781,0.21875 0.21875,0.402343 0.101563,0.402343 -0.121094,0 -0.0078,0.394531 0.253906,0.882813 0.261719,0.484375 1.085938,2.113281 1.835938,3.617187 1.71875,3.453125 3.847656,6.621094 6.902343,10.261719 2.890625,3.44141 4.742188,5.15234 8.984375,8.29688 5.382813,3.98828 13.421875,8.08984 14.859375,7.58203 1.042969,-0.3711 1.695313,-1.16016 1.695313,-2.05078 0,-1.37891 -0.847656,-2.09375 -4.984375,-4.19141 -9.085938,-4.61328 -15.175781,-9.76953 -19.894531,-16.847658 -5.921876,-8.878906 -8.800782,-20.078124 -7.621094,-29.621093 1.808594,-14.65625 9.347656,-26.097657 23.265625,-35.3125 2.875,-1.90625 3.386719,-2.601563 3.011719,-4.105469 -0.191407,-0.765625 -1.535157,-1.925781 -2.625,-2.265625 -0.382813,-0.117187 -1.082032,0.07813 -1.761719,0.488281 m 40.953125,-0.152344 c -0.792969,0.570313 -1.128906,1.675782 -0.742188,2.425782 0.664063,1.28125 1.351563,1.875 4.953125,4.253906 3.945309,2.609375 8.308599,6.292969 10.617189,8.972656 2.90234,3.355469 6.19141,8.765625 7.89062,12.96875 0.16407,0.398438 0.42579,1.050782 0.58204,1.445313 0.51953,1.300781 1.30468,4.203125 1.98046,7.3125 0.76563,3.546875 0.92969,10.9375 0.3086,14.03125 -2.07031,10.320312 -5.03516,16.542969 -11.22656,23.574219 -2.625,2.984372 -2.99219,3.347652 -5.17969,5.152342 -4.289065,3.54297 -6.761721,5.13672 -11.964846,7.70703 -4.066406,2.00782 -4.097656,2.03125 -4.097656,3.13282 0,0.83593 0.269531,1.38281 1.089843,2.20312 0.601563,0.60156 1.335938,1.09375 1.628907,1.09375 0.292968,0 1.785156,-0.51953 3.3125,-1.15234 11.367192,-4.70703 21.707032,-14.3125 27.042972,-25.132816 3.53515,-7.160156 5.17187,-14.15625 5.17187,-22.089844 0,-13.65625 -5.55078,-26.488281 -15.65625,-36.1875 C 103.30078,25.992188 96.023438,21.492188 94.308594,22.726562 M 73.0625,26.195312 c 0.0039,1.0625 0.0625,1.457032 0.136719,0.878907 0.07031,-0.578125 0.06641,-1.445313 -0.0039,-1.929688 -0.07422,-0.480469 -0.132812,-0.0078 -0.132812,1.050781 M 53.679688,45.480469 c 0,0.726562 0.128906,0.804687 1.285156,0.804687 H 56.25 V 81 h -2.570312 v 11.570312 h 4.925781 c 2.710937,0 5.015625,-0.08594 5.125,-0.191406 0.234375,-0.238281 22.433593,-0.214844 22.671875,0.02344 0.09375,0.09375 2.386718,0.167968 5.097656,0.167968 h 4.929688 V 81 H 93.855469 V 46.285156 h 1.289062 c 1.035157,0 1.285157,-0.113281 1.285157,-0.59375 0,-0.914062 -2.160157,-1.007812 -23.546876,-1.011718 H 53.679688 v 0.800781 m 10.753906,4.488281 c -0.742188,0.742188 -0.789063,0.996094 -0.789063,4.339844 v 3.546875 h 22.820313 v -3.492188 c 0,-3.046875 -0.08594,-3.597656 -0.667969,-4.335937 C 85.25,49.328125 84.871094,49.179688 83.628906,49.179688 l -1.503906,-0.0039 0.101562,3.214844 c 0.09766,3.117187 0.08203,3.214844 -0.597656,3.214844 -0.679687,0 -0.695312,-0.07422 -0.53125,-3.210938 l 0.167969,-3.214843 h -3.800781 v 3.214843 c 0,3 -0.04297,3.210938 -0.644532,3.210938 -0.597656,0 -0.640624,-0.210938 -0.640624,-3.210938 v -3.214843 h -5.480469 c -5.386719,0 -5.492188,0.01172 -6.265625,0.789062 m 7.648437,2.636719 c -0.238281,0.09766 -0.402343,0.75 -0.402343,1.605469 0,1.199218 0.09375,1.425781 0.5625,1.335937 0.421874,-0.07813 0.585937,-0.480469 0.660156,-1.628906 0.09375,-1.492188 0,-1.644531 -0.820313,-1.3125 m -5.417969,0.5625 c -0.335937,0.867187 0.01563,2.269531 0.59375,2.378906 0.46875,0.08984 0.5625,-0.136719 0.5625,-1.363281 0,-1.105469 -0.121093,-1.46875 -0.492187,-1.46875 -0.269531,0 -0.570313,0.203125 -0.664063,0.453125 M 63.644531,75.375 V 89.355469 H 83.570312 V 64.25 l 1.449219,-0.640625 c 1.144531,-0.507813 1.445313,-0.800781 1.445313,-1.429687 V 61.394531 H 81.78125 c -3.40625,0 -4.789062,0.109375 -5.0625,0.410157 -4.296875,4.683593 -5.394531,5.6875 -6.246094,5.691406 -0.683594,0.0039 -1.6875,-1.242188 -1.6875,-2.097656 0,-0.53125 0.527344,-1.382813 1.492188,-2.414063 l 1.488281,-1.589844 H 63.644531 V 75.375 m 10.214844,-5.871094 c -2.597656,2.699219 -4.902344,5.324219 -5.117187,5.835938 -0.542969,1.289062 0.167968,2.570312 1.5,2.695312 0.851562,0.08203 1.453124,-0.429687 5.613281,-4.769531 2.566406,-2.671875 4.820312,-5.148437 5.011719,-5.507813 0.699218,-1.289062 -0.351563,-3.144531 -1.785157,-3.152343 -0.273437,-0.0039 -2.621093,2.203125 -5.222656,4.898437 M 45.996094,67.179688 c 0.05469,2.09375 0.109375,2.25 0.773437,2.25 0.597657,0 0.746094,-0.222657 0.898438,-1.355469 0.28125,-2.109375 -0.03125,-3.144531 -0.953125,-3.144531 -0.75,0 -0.773438,0.07031 -0.71875,2.25 m 56.574216,0 c 0.0469,1.945312 0.13672,2.25 0.64453,2.25 0.41407,0 0.52735,0.15625 0.38282,0.535156 -0.125,0.324218 -0.0781,0.453125 0.125,0.328125 0.35937,-0.222657 0.77734,-4.25 0.51562,-4.941407 -0.0898,-0.230468 -0.51562,-0.421874 -0.94531,-0.421874 -0.75781,0 -0.77734,0.06641 -0.72266,2.25 m -24.027341,8.449218 c -0.832031,0.46875 -9.253907,9.351563 -9.855469,10.390625 -0.207031,0.363281 0.210938,0.445313 2.277344,0.445313 H 73.5 l 1.722656,-1.847656 c 0.949219,-1.019532 2.710938,-2.882813 3.910156,-4.144532 2.402344,-2.523437 2.628907,-3.242187 1.398438,-4.46875 -0.890625,-0.894531 -1.03125,-0.917968 -1.988281,-0.375 M 62.738281,98.917969 c 0.02734,2.339841 0.117188,2.644531 1.460938,4.984371 l 1.433593,2.48829 6.15625,-0.20704 c 3.886719,-0.13281 6.246094,-0.33984 6.398438,-0.5625 0.167969,-0.24609 0.324219,-0.22656 0.519531,0.0781 0.152344,0.23437 0.621094,0.37891 1.042969,0.32031 0.765625,-0.10937 0.769531,-0.11719 0.824219,-4.85156 l 0.05859,-4.738282 H 62.710938 l 0.02734,2.488281 m 4.441407,9.937501 c 0,0.13281 0.828124,1.72656 1.839843,3.54687 l 1.84375,3.3125 4.183594,-0.008 4.183594,-0.004 1.769531,-3.25 c 0.972656,-1.78516 1.8125,-3.35938 1.867188,-3.5 0.05078,-0.14063 -3.457032,-0.26954 -7.796876,-0.29297 -4.339843,-0.0234 -7.890624,0.0664 -7.890624,0.19531 m 5.386718,10.15234 c 0.101563,0.39844 0.546875,1.375 0.988282,2.17188 1.546874,2.80078 1.371093,2.75 2.53125,0.71484 0.578124,-1.01172 1.050781,-1.92969 1.054687,-2.03906 0,-0.10938 -0.671875,-0.27734 -1.492187,-0.36719 -0.898438,-0.10156 -1.609376,-0.375 -1.785157,-0.6875 -0.15625,-0.28125 -0.558593,-0.51562 -0.886719,-0.51562 -0.457031,0 -0.550781,0.16797 -0.410156,0.72265"
       id="path2" />
  </g>
</svg>
