<svg id="favicon" width="24" height="24" viewBox="0 0 24 24" fill="none" xmlns="http://www.w3.org/2000/svg">
<rect width="24" height="24" fill="#1F2937"/>
<path fill-rule="evenodd" clip-rule="evenodd" d="M13.9015 15.1096C13.8557 15.1578 13.7742 15.1257 13.7741 15.0597L13.767 11.9257C13.767 11.8445 13.7003 11.7785 13.6184 11.7785H11.9091C11.827 11.7785 11.7605 11.8445 11.7605 11.9257V12.5874C11.5785 12.4423 11.3885 12.3122 11.1919 12.197C11.2166 12.1802 11.2363 12.1561 11.2474 12.1271C11.4176 11.6834 11.5931 11.2535 11.7385 10.8137C11.8136 10.5861 11.9222 10.5015 12.1669 10.5039C13.3184 10.5155 14.47 10.5127 15.6216 10.5058C15.838 10.5046 15.9557 10.5649 16.0285 10.7858C16.1772 11.2365 16.3578 11.6768 16.5304 12.1259C16.547 12.1695 16.5831 12.2017 16.6265 12.2149C15.8241 13.0874 14.3424 14.6463 13.9015 15.1096ZM11.0644 18.1051C11.0033 18.0587 10.9172 18.0658 10.8624 18.1194C9.51319 19.4435 7.69784 19.1163 6.79852 18.2076C5.76297 17.1613 5.75538 15.4037 6.77786 14.3419C7.60317 13.4845 9.41667 13.0124 10.866 14.4081C10.921 14.461 11.0055 14.4681 11.0663 14.4219C11.2969 14.2471 11.5291 14.0712 11.7605 13.8958V18.6335C11.5308 18.4593 11.2997 18.2837 11.0644 18.1051ZM7.23243 8.71094C7.3655 8.71114 7.47827 8.7114 7.59103 8.71068C8.12322 8.70759 8.65624 8.72297 9.18725 8.69669C9.72681 8.67 10.2189 8.49581 10.6254 8.21496C10.1742 9.3289 9.72273 10.444 9.27024 11.5614C8.53215 11.4817 7.77968 11.5745 7.07518 11.8408V8.86579C7.07518 8.78021 7.14616 8.71083 7.23243 8.71094ZM7.09655 5.21685C7.09655 5.13172 7.16577 5.06325 7.25158 5.0622C7.8419 5.05515 8.43211 5.01432 9.01018 5.08048C9.51391 5.13808 9.80583 5.58963 9.78998 6.05761C9.77419 6.52571 9.45368 6.93863 8.94586 6.98617C8.39989 7.03729 7.84599 7.00537 7.25216 6.99993C7.16636 6.99912 7.09655 6.93042 7.09655 6.84529V5.21685ZM12.5852 8.5891C12.9687 7.55623 13.3476 6.53538 13.7471 5.45866C13.7951 5.32923 13.98 5.32888 14.0286 5.45808C14.431 6.5289 14.8132 7.54559 15.2051 8.58833C15.2414 8.68522 15.1692 8.78901 15.0648 8.78901H12.7257C12.6216 8.78901 12.5492 8.68594 12.5852 8.5891ZM19.9639 20.7495C18.53 19.0953 17.1567 17.511 15.7703 15.9116C15.7198 15.8535 15.723 15.7666 15.777 15.7121C16.9957 14.4843 18.1982 13.2724 19.4486 12.0127C19.5413 11.9192 19.474 11.7604 19.3418 11.7609C19.08 11.7616 18.8307 11.7628 18.5857 11.7635C18.3217 11.1083 18.0639 10.4679 17.8055 9.82889C16.9376 7.68124 16.0712 5.53301 15.1966 3.38789C15.1292 3.22249 15.1232 2.99255 14.824 3.00019C14.1674 3.01707 13.51 3.00689 12.8366 3.00585C12.7753 3.00585 12.7196 3.04287 12.6969 3.09931C12.369 3.90896 12.0414 4.71757 11.7142 5.52606C11.4751 4.10374 10.2976 3.2373 9.03002 3.22296C7.82182 3.20931 6.61338 3.21879 5.40518 3.2196C5.34027 3.2196 5.27525 3.22342 5.2086 3.2277C5.12653 3.23313 5.06245 3.3008 5.06245 3.38234V13.1843C5.06245 13.2148 5.07202 13.2425 5.08708 13.2663C3.48326 15.1972 3.65685 18.0404 5.5895 19.7861C7.3362 21.3638 9.97848 21.3744 11.7605 19.9495V20.8146C11.7605 20.8959 11.827 20.9618 11.9091 20.9618H13.6544C13.7364 20.9618 13.8029 20.8959 13.8029 20.8146V17.0078C13.8029 16.8696 13.9777 16.8079 14.066 16.9146L14.0678 16.9169C15.115 18.1857 16.1654 19.4518 17.2046 20.727C17.3642 20.923 17.5293 21.0101 17.7865 20.9991C18.2606 20.979 18.736 20.9934 19.2109 20.9934H19.8511C19.9781 20.9934 20.0466 20.845 19.9639 20.7495Z" fill="white"/>
</svg>