<svg id="brilliant-layers-logo" xmlns="http://www.w3.org/2000/svg" width="180" height="180" viewBox="120 50 210 420" version="1.1"><path d="M 243.051 62.846 C 241.227 68.374, 241.896 178.966, 243.750 178.261 C 244.731 177.888, 245 164.987, 245 118.393 C 245 85.727, 244.847 59, 244.660 59 C 244.473 59, 243.749 60.731, 243.051 62.846 M 212.660 60.750 C 212.408 61.163, 212.066 87.150, 211.899 118.500 C 211.732 149.850, 211.202 176.323, 210.720 177.330 C 209.986 178.863, 210.222 179.106, 212.172 178.830 L 214.500 178.500 214.697 119.250 C 214.874 66.241, 214.574 57.616, 212.660 60.750 M 288.371 61.208 C 287.961 61.873, 287.528 88.170, 287.410 119.646 C 287.291 151.123, 286.899 177.354, 286.538 177.938 C 286.156 178.556, 286.743 179, 287.941 179 C 289.997 179, 290 178.902, 290 119.500 C 290 86.775, 289.802 60, 289.559 60 C 289.316 60, 288.782 60.544, 288.371 61.208 M 273.464 64.288 C 273.148 65.546, 273.293 83.209, 273.785 103.538 L 274.680 140.500 274.840 101.250 C 274.928 79.662, 274.784 62, 274.519 62 C 274.255 62, 273.780 63.030, 273.464 64.288 M 227.467 84.750 C 226.625 109.039, 227.585 172.985, 228.811 174.211 C 229.245 174.645, 229.578 149.800, 229.550 119 C 229.523 88.200, 229.212 63, 228.861 63 C 228.509 63, 227.882 72.787, 227.467 84.750 M 274.164 156.500 C 274.008 163.650, 273.529 171.637, 273.099 174.250 C 272.665 176.886, 272.706 179, 273.190 179 C 274.837 179, 275.051 176.391, 274.749 159.962 L 274.447 143.500 274.164 156.500 M 198.286 171.500 C 198.294 174.250, 198.488 175.256, 198.718 173.736 C 198.947 172.216, 198.941 169.966, 198.704 168.736 C 198.467 167.506, 198.279 168.750, 198.286 171.500 M 181.250 178.716 C 182.762 178.945, 185.238 178.945, 186.750 178.716 C 188.262 178.487, 187.025 178.300, 184 178.300 C 180.975 178.300, 179.738 178.487, 181.250 178.716 M 306.750 178.706 C 307.988 178.944, 310.012 178.944, 311.250 178.706 C 312.488 178.467, 311.475 178.272, 309 178.272 C 306.525 178.272, 305.512 178.467, 306.750 178.706 M 182 191.500 C 182 193.750, 182.400 194, 186 194 L 190 194 190 248 L 190 302 186 302 L 182 302 182 320 L 182 338 197.333 338 C 205.767 338, 212.937 337.730, 213.267 337.400 C 214.005 336.662, 283.063 336.730, 283.803 337.469 C 284.095 337.761, 291.233 338, 299.667 338 L 315 338 315 320 L 315 302 311 302 L 307 302 307 248 L 307 194 311 194 C 314.229 194, 315 193.643, 315 192.145 C 315 189.303, 308.278 189.015, 241.750 189.007 L 182 189 182 191.500 M 215.455 205.455 C 213.145 207.764, 213 208.561, 213 218.955 L 213 230 248.500 230 L 284 230 284 219.135 C 284 209.657, 283.735 207.933, 281.927 205.635 C 280.217 203.460, 279.038 203, 275.177 202.998 L 270.500 202.996 270.816 212.998 C 271.123 222.697, 271.067 223, 268.959 223 C 266.838 223, 266.798 222.759, 267.303 213 L 267.821 203 261.911 203 L 256 203 256 213 C 256 222.333, 255.867 223, 254 223 C 252.133 223, 252 222.333, 252 213 L 252 203 234.955 203 C 218.190 203, 217.869 203.040, 215.455 205.455 M 239.250 213.662 C 238.510 213.961, 238 216, 238 218.657 C 238 222.393, 238.294 223.091, 239.750 222.814 C 241.069 222.564, 241.575 221.313, 241.805 217.741 C 242.103 213.107, 241.805 212.631, 239.250 213.662 M 222.394 215.416 C 221.359 218.112, 222.453 222.474, 224.250 222.815 C 225.710 223.092, 226 222.389, 226 218.573 C 226 215.133, 225.621 214, 224.469 214 C 223.626 214, 222.693 214.637, 222.394 215.416 M 162.286 237.500 C 162.294 240.250, 162.488 241.256, 162.718 239.736 C 162.947 238.216, 162.941 235.966, 162.704 234.736 C 162.467 233.506, 162.279 234.750, 162.286 237.500 M 213 284.500 L 213 328 244 328 L 275 328 275 288.944 L 275 249.888 279.500 247.897 C 283.070 246.318, 284 245.399, 284 243.453 L 284 241 269.429 241 C 258.835 241, 254.535 241.351, 253.679 242.285 C 240.317 256.858, 236.892 259.979, 234.250 259.993 C 232.116 260.005, 229 256.126, 229 253.457 C 229 251.812, 230.636 249.165, 233.637 245.957 L 238.274 241 225.637 241 L 213 241 213 284.500 M 95.272 252 C 95.272 254.475, 95.467 255.488, 95.706 254.250 C 95.944 253.012, 95.944 250.988, 95.706 249.750 C 95.467 248.512, 95.272 249.525, 95.272 252 M 244.789 266.239 C 236.699 274.633, 229.531 282.799, 228.861 284.387 C 227.170 288.399, 229.391 292.390, 233.531 292.779 C 236.183 293.028, 238.050 291.442, 251 277.940 C 258.975 269.625, 265.991 261.915, 266.591 260.806 C 268.765 256.791, 265.495 251.021, 261.027 250.989 C 260.187 250.983, 252.880 257.845, 244.789 266.239 M 158.104 259 C 158.269 265.519, 158.434 266, 160.509 266 C 162.370 266, 162.829 265.308, 163.301 261.790 C 164.181 255.230, 163.204 252, 160.339 252 C 158.003 252, 157.933 252.220, 158.104 259 M 334.104 259 C 334.257 265.050, 334.529 266, 336.109 266 C 337.403 266, 337.751 266.486, 337.299 267.664 C 336.909 268.680, 337.062 269.080, 337.691 268.691 C 338.811 267.999, 340.117 255.468, 339.292 253.319 C 339.014 252.594, 337.693 252, 336.357 252 C 333.999 252, 333.933 252.206, 334.104 259 M 95.272 271 C 95.272 273.475, 95.467 274.488, 95.706 273.250 C 95.944 272.012, 95.944 269.988, 95.706 268.750 C 95.467 267.512, 95.272 268.525, 95.272 271 M 259.356 285.285 C 256.767 286.752, 230.564 314.386, 228.700 317.614 C 228.047 318.746, 229.347 319, 235.781 319 L 243.662 319 249.028 313.250 C 251.979 310.087, 257.455 304.285, 261.197 300.357 C 268.666 292.514, 269.366 290.275, 265.545 286.455 C 262.768 283.677, 262.339 283.596, 259.356 285.285 M 210.186 357.750 C 210.270 365.023, 210.550 365.977, 214.733 373.249 L 219.189 380.999 238.345 380.348 C 250.434 379.938, 257.777 379.292, 258.250 378.599 C 258.776 377.829, 259.258 377.900, 259.863 378.837 C 260.338 379.573, 261.800 380.023, 263.113 379.837 C 265.496 379.501, 265.500 379.478, 265.678 364.750 L 265.856 350 237.976 350 L 210.096 350 210.186 357.750 M 199.286 359.500 C 199.294 362.250, 199.488 363.256, 199.718 361.736 C 199.947 360.216, 199.941 357.966, 199.704 356.736 C 199.467 355.506, 199.279 356.750, 199.286 359.500 M 224 388.666 C 224 389.071, 226.578 394.037, 229.730 399.701 L 235.460 410 248.480 409.982 L 261.500 409.963 267 399.859 C 270.025 394.302, 272.637 389.400, 272.804 388.967 C 272.971 388.533, 262.058 388.122, 248.554 388.054 C 235.049 387.986, 224 388.262, 224 388.666 M 240.765 420.250 C 241.083 421.488, 242.463 424.525, 243.832 427 C 248.649 435.712, 248.105 435.559, 251.713 429.226 C 253.507 426.077, 254.981 423.221, 254.987 422.880 C 254.994 422.539, 252.907 422.024, 250.349 421.736 C 247.551 421.420, 245.340 420.572, 244.799 419.606 C 244.305 418.723, 243.065 418, 242.044 418 C 240.614 418, 240.320 418.517, 240.765 420.250" stroke="none" fill="#cad5df" fill-rule="evenodd"/><path d="M 200.130 58.343 C 199.345 59.289, 198.940 77.237, 198.758 119.081 L 198.500 178.475 187.548 178.766 C 173.217 179.145, 173 179.332, 173 191.310 L 173 200.310 177 204.115 L 181 207.920 181 218.328 L 181 228.737 173.536 229.216 C 169.431 229.479, 165.381 230.269, 164.536 230.970 C 163.550 231.788, 163 233.942, 163 236.983 L 163 241.720 157.431 242.295 C 148.910 243.174, 149 242.980, 149 260.546 C 149 275.548, 149.051 275.907, 151.589 278.923 C 153.663 281.388, 154.951 282, 158.070 282 C 161.389 282, 162.054 282.369, 162.590 284.503 C 163.610 288.567, 168.514 292, 173.299 292 C 177.337 292, 177.387 292.041, 175.223 293.557 C 173.027 295.095, 173 295.413, 173 320.095 L 173 345.077 176.841 349.195 L 180.681 353.312 190.091 353.906 L 199.500 354.500 199.515 362 C 199.528 368.218, 199.972 370.269, 202.113 374 C 211.502 390.361, 216.813 399.446, 225.501 414 C 230.918 423.075, 237.344 433.988, 239.782 438.252 C 246.927 450.745, 251.574 453.303, 256.500 447.452 C 257.600 446.145, 268.160 428.747, 279.967 408.788 L 301.434 372.500 301.967 363.500 L 302.500 354.500 312.146 353.933 C 322.875 353.303, 326.482 351.752, 327.717 347.237 C 328.129 345.732, 328.474 334.289, 328.483 321.809 L 328.500 299.118 325.054 295.559 L 321.608 292 328.304 292 C 335.441 292, 339 290.070, 339 286.200 C 339 283.423, 341.048 282, 345.045 282 C 347.481 282, 349.322 281.302, 350.595 279.895 C 352.284 278.029, 352.500 276.146, 352.500 263.318 L 352.500 248.846 348.765 245.423 C 346.239 243.109, 344.053 242, 342.015 242 C 339.330 242, 339 241.671, 339 238.991 C 339 237.003, 337.969 234.902, 335.961 232.802 C 333.372 230.093, 332.058 229.559, 327.082 229.200 L 321.241 228.777 320.621 224.249 C 319.133 213.397, 320.189 208.307, 324.396 206.055 C 327.762 204.254, 329.418 198.324, 328.600 191 C 328.068 186.239, 327.439 184.982, 323.916 181.642 C 319.854 177.792, 319.832 177.785, 313.592 178.453 C 310.152 178.822, 306.092 178.810, 304.568 178.428 L 301.798 177.733 302.056 132.116 C 302.197 107.027, 302.243 81.006, 302.156 74.290 C 302.004 62.357, 301.938 62.024, 299.260 59.540 C 296.310 56.805, 293.125 56.275, 291.200 58.200 C 290.293 59.107, 290 74.022, 290 119.200 C 290 178.905, 289.997 179, 287.941 179 C 286.723 179, 286.154 178.559, 286.548 177.922 C 287.501 176.381, 287.737 65, 286.788 65 C 286.355 65, 286 64.343, 286 63.540 C 286 59.557, 276.717 54.967, 275.432 58.315 C 275.155 59.039, 274.831 86.339, 274.714 118.982 C 274.550 164.567, 274.218 178.427, 273.283 178.739 C 272.336 179.055, 272.055 166.890, 272.017 124.119 C 271.990 93.855, 271.691 67.610, 271.352 65.797 C 270.079 58.986, 262.465 54.395, 260.020 58.963 C 259.318 60.274, 258.986 80.297, 259.021 119.213 C 259.068 170.863, 258.898 177.537, 257.537 177.823 C 256.168 178.111, 256 171.789, 256 120.114 L 256 62.081 253.250 59.510 C 251.503 57.877, 249.588 57.041, 248 57.219 L 245.500 57.500 245.242 117.446 C 244.986 177.062, 244.805 180.234, 241.783 178.366 C 241.336 178.090, 241.090 152.049, 241.235 120.498 L 241.500 63.133 238.563 60.067 C 235.302 56.662, 231.541 56.071, 230.183 58.750 C 229.689 59.723, 229.393 85.589, 229.515 117 C 229.635 148.075, 229.520 174.512, 229.258 175.750 C 228.997 176.988, 228.157 178, 227.392 178 C 226.219 178, 226 168.908, 226 120.187 L 226 62.374 223.195 59.687 C 220.346 56.957, 216.637 56.160, 215.482 58.030 C 215.132 58.596, 214.768 85.934, 214.673 118.780 L 214.500 178.500 212.172 178.830 C 210.236 179.104, 209.984 178.851, 210.672 177.330 C 211.503 175.494, 211.573 165.029, 211.201 98.827 L 211 63.153 208.411 60.077 C 205.666 56.814, 202.031 56.053, 200.130 58.343 M 181 121.176 C 173.923 125.478, 164.461 131.533, 163.001 132.695 C 162.176 133.352, 159.025 135.721, 156 137.960 C 144.220 146.678, 127.201 165.614, 118.216 180 C 108.721 195.204, 101.104 215.654, 97.357 236 C 95.436 246.431, 95.175 275.831, 96.925 284.500 C 99.365 296.578, 104.592 314.643, 106.257 316.750 C 106.800 317.438, 106.939 318, 106.566 318 C 106.192 318, 106.551 319.238, 107.364 320.750 C 108.176 322.262, 110.743 327.325, 113.069 332 C 118.416 342.748, 125.044 352.600, 134.546 363.926 C 143.536 374.641, 149.298 379.963, 162.500 389.745 C 179.241 402.150, 204.257 414.913, 208.723 413.327 C 211.969 412.174, 214 409.723, 214 406.956 C 214 402.662, 211.361 400.441, 198.500 393.913 C 170.222 379.559, 151.283 363.522, 136.602 341.500 C 118.183 313.871, 109.218 279.034, 112.887 249.341 C 118.521 203.747, 141.972 168.153, 185.272 139.479 C 194.222 133.553, 195.815 131.383, 194.643 126.714 C 194.043 124.323, 189.870 120.719, 186.481 119.665 C 185.289 119.294, 183.105 119.897, 181 121.176 M 308.400 120.709 C 305.939 122.478, 304.887 125.918, 306.093 128.250 C 308.157 132.239, 310.301 134.082, 321.500 141.485 C 333.777 149.601, 347.354 161.069, 354.542 169.395 C 363.561 179.841, 373.795 196.666, 379.090 209.750 C 379.590 210.988, 380.405 213.012, 380.900 214.250 C 382.518 218.296, 384.960 227.321, 387.055 237 C 389.441 248.025, 389.946 271.019, 388.015 280.652 C 381.578 312.751, 372.358 332.117, 353.096 353.991 C 344.921 363.274, 343.783 364.406, 336.979 370.023 C 323.627 381.046, 315.943 385.994, 299.750 393.995 C 287.096 400.249, 287 400.322, 287 403.748 C 287 406.340, 287.847 408.047, 290.400 410.600 C 292.270 412.470, 294.545 414, 295.457 414 C 296.368 414, 301.010 412.387, 305.773 410.415 C 341.137 395.776, 373.298 365.886, 389.903 332.227 C 400.896 309.942, 405.991 288.179, 405.993 263.500 C 405.995 221.015, 388.722 181.095, 357.277 150.913 C 336.385 130.860, 313.742 116.868, 308.400 120.709 M 242.310 131.500 C 242.315 134.800, 242.502 136.029, 242.725 134.232 C 242.947 132.435, 242.943 129.735, 242.715 128.232 C 242.486 126.729, 242.304 128.200, 242.310 131.500 M 182 191.500 C 182 193.750, 182.400 194, 186 194 L 190 194 190 248 L 190 302 186 302 L 182 302 182 320 L 182 338 197.333 338 C 205.767 338, 212.937 337.730, 213.267 337.400 C 214.005 336.662, 283.063 336.730, 283.803 337.469 C 284.095 337.761, 291.233 338, 299.667 338 L 315 338 315 320 L 315 302 311 302 L 307 302 307 248 L 307 194 311 194 C 314.229 194, 315 193.643, 315 192.145 C 315 189.303, 308.278 189.015, 241.750 189.007 L 182 189 182 191.500 M 215.455 205.455 C 213.145 207.764, 213 208.561, 213 218.955 L 213 230 248.500 230 L 284 230 284 219.135 C 284 209.657, 283.735 207.933, 281.927 205.635 C 280.217 203.460, 279.038 203, 275.177 202.998 L 270.500 202.996 270.816 212.998 C 271.123 222.697, 271.067 223, 268.959 223 C 266.838 223, 266.798 222.759, 267.303 213 L 267.821 203 261.911 203 L 256 203 256 213 C 256 222.333, 255.867 223, 254 223 C 252.133 223, 252 222.333, 252 213 L 252 203 234.955 203 C 218.190 203, 217.869 203.040, 215.455 205.455 M 239.250 213.662 C 238.510 213.961, 238 216, 238 218.657 C 238 222.393, 238.294 223.091, 239.750 222.814 C 241.069 222.564, 241.575 221.313, 241.805 217.741 C 242.103 213.107, 241.805 212.631, 239.250 213.662 M 222.394 215.416 C 221.359 218.112, 222.453 222.474, 224.250 222.815 C 225.710 223.092, 226 222.389, 226 218.573 C 226 215.133, 225.621 214, 224.469 214 C 223.626 214, 222.693 214.637, 222.394 215.416 M 213 284.500 L 213 328 244 328 L 275 328 275 288.944 L 275 249.888 279.500 247.897 C 283.070 246.318, 284 245.399, 284 243.453 L 284 241 269.429 241 C 258.835 241, 254.535 241.351, 253.679 242.285 C 240.317 256.858, 236.892 259.979, 234.250 259.993 C 232.116 260.005, 229 256.126, 229 253.457 C 229 251.812, 230.636 249.165, 233.637 245.957 L 238.274 241 225.637 241 L 213 241 213 284.500 M 244.789 266.239 C 236.699 274.633, 229.531 282.799, 228.861 284.387 C 227.170 288.399, 229.391 292.390, 233.531 292.779 C 236.183 293.028, 238.050 291.442, 251 277.940 C 258.975 269.625, 265.991 261.915, 266.591 260.806 C 268.765 256.791, 265.495 251.021, 261.027 250.989 C 260.187 250.983, 252.880 257.845, 244.789 266.239 M 158.104 259 C 158.269 265.519, 158.434 266, 160.509 266 C 162.370 266, 162.829 265.308, 163.301 261.790 C 164.181 255.230, 163.204 252, 160.339 252 C 158.003 252, 157.933 252.220, 158.104 259 M 334.104 259 C 334.257 265.050, 334.529 266, 336.109 266 C 337.403 266, 337.751 266.486, 337.299 267.664 C 336.909 268.680, 337.062 269.080, 337.691 268.691 C 338.811 267.999, 340.117 255.468, 339.292 253.319 C 339.014 252.594, 337.693 252, 336.357 252 C 333.999 252, 333.933 252.206, 334.104 259 M 259.356 285.285 C 256.767 286.752, 230.564 314.386, 228.700 317.614 C 228.047 318.746, 229.347 319, 235.781 319 L 243.662 319 249.028 313.250 C 251.979 310.087, 257.455 304.285, 261.197 300.357 C 268.666 292.514, 269.366 290.275, 265.545 286.455 C 262.768 283.677, 262.339 283.596, 259.356 285.285 M 210.186 357.750 C 210.270 365.023, 210.550 365.977, 214.733 373.249 L 219.189 380.999 238.345 380.348 C 250.434 379.938, 257.777 379.292, 258.250 378.599 C 258.776 377.829, 259.258 377.900, 259.863 378.837 C 260.338 379.573, 261.800 380.023, 263.113 379.837 C 265.496 379.501, 265.500 379.478, 265.678 364.750 L 265.856 350 237.976 350 L 210.096 350 210.186 357.750 M 224 388.666 C 224 389.071, 226.578 394.037, 229.730 399.701 L 235.460 410 248.480 409.982 L 261.500 409.963 267 399.859 C 270.025 394.302, 272.637 389.400, 272.804 388.967 C 272.971 388.533, 262.058 388.122, 248.554 388.054 C 235.049 387.986, 224 388.262, 224 388.666 M 240.765 420.250 C 241.083 421.488, 242.463 424.525, 243.832 427 C 248.649 435.712, 248.105 435.559, 251.713 429.226 C 253.507 426.077, 254.981 423.221, 254.987 422.880 C 254.994 422.539, 252.907 422.024, 250.349 421.736 C 247.551 421.420, 245.340 420.572, 244.799 419.606 C 244.305 418.723, 243.065 418, 242.044 418 C 240.614 418, 240.320 418.517, 240.765 420.250" stroke="none" fill="#354154" fill-rule="evenodd"/></svg>