<svg id="discount" width="24" height="24" viewBox="0 0 24 24" fill="none" xmlns="http://www.w3.org/2000/svg">
<path d="M19.8608 2.46428H13.0468L13.0144 2.41666H19.8608C21.0294 2.41666 21.9762 3.36371 21.9762 4.5395V11.3452C21.9762 11.3584 21.9655 11.369 21.9524 11.369C21.9392 11.369 21.9286 11.3584 21.9286 11.3452V4.5395C21.9286 3.39264 21.0057 2.46428 19.8608 2.46428ZM12.7857 2.41666H12.798L12.7601 2.43263L12.7687 2.42382C12.7732 2.41925 12.7793 2.41666 12.7857 2.41666ZM2.45182 12.97L12.6088 2.58731L12.6202 2.64376L2.48586 13.0033C1.68525 13.8217 1.69996 15.1337 2.52204 15.9309L8.15396 21.3921C8.97863 22.1918 10.321 22.201 11.1596 21.4165C11.1598 21.4164 11.1599 21.4162 11.1601 21.416L19.7295 13.4271C19.7391 13.4181 19.7542 13.4186 19.7631 13.4282C19.7721 13.4379 19.7716 13.4529 19.762 13.4619L11.1926 21.4508L11.1919 21.4515C10.3348 22.2539 8.9631 22.243 8.12081 21.4263L2.48889 15.965C1.64878 15.1504 1.63187 13.8081 2.45182 12.97ZM18.8333 7.41666C18.8333 8.44234 18.0019 9.27381 16.9762 9.27381C15.9505 9.27381 15.119 8.44234 15.119 7.41666C15.119 6.39099 15.9505 5.55952 16.9762 5.55952C18.0019 5.55952 18.8333 6.39099 18.8333 7.41666ZM15.1667 7.41666C15.1667 8.41604 15.9768 9.22619 16.9762 9.22619C17.9756 9.22619 18.7857 8.41604 18.7857 7.41666C18.7857 6.41729 17.9756 5.60714 16.9762 5.60714C15.9768 5.60714 15.1667 6.41729 15.1667 7.41666Z" fill="black" stroke="currentColor"/>
</svg>
