<svg id="filter" width="24" height="24" viewBox="0 0 24 24" fill="none" xmlns="http://www.w3.org/2000/svg">
  <path d="M10.8333 19H13.1667C13.8083 19 14.3333 18.475 14.3333 17.8333C14.3333 17.1917 13.8083 16.6667 13.1667 16.6667H10.8333C10.1917 16.6667 9.66667 17.1917 9.66667 17.8333C9.66667 18.475 10.1917 19 10.8333 19ZM1.5 6.16667C1.5 6.80833 2.025 7.33333 2.66667 7.33333H21.3333C21.975 7.33333 22.5 6.80833 22.5 6.16667C22.5 5.525 21.975 5 21.3333 5H2.66667C2.025 5 1.5 5.525 1.5 6.16667ZM6.16667 13.1667H17.8333C18.475 13.1667 19 12.6417 19 12C19 11.3583 18.475 10.8333 17.8333 10.8333H6.16667C5.525 10.8333 5 11.3583 5 12C5 12.6417 5.525 13.1667 6.16667 13.1667Z" fill="currentColor"/>
</svg>
