<svg id="logo" width="31" height="35" viewBox="0 0 31 35" fill="none" xmlns="http://www.w3.org/2000/svg">
<path fill-rule="evenodd" clip-rule="evenodd" d="M19.1841 23.5465C19.0954 23.6401 18.9376 23.5778 18.9373 23.4494L18.9235 17.3556C18.9235 17.1977 18.7944 17.0693 18.6356 17.0693H15.3238C15.1648 17.0693 15.0359 17.1977 15.0359 17.3556V18.6421C14.6833 18.36 14.3153 18.107 13.9344 17.883C13.9821 17.8504 14.0203 17.8036 14.0418 17.7472C14.3716 16.8844 14.7117 16.0485 14.9933 15.1934C15.1388 14.7508 15.3493 14.5862 15.8234 14.5909C18.0544 14.6134 20.2856 14.608 22.5168 14.5947C22.9361 14.5922 23.1641 14.7096 23.3052 15.139C23.5933 16.0154 23.9432 16.8716 24.2777 17.7449C24.3099 17.8295 24.3797 17.8922 24.4639 17.9179C22.9092 19.6143 20.0384 22.6456 19.1841 23.5465V23.5465ZM13.6872 29.3711C13.5689 29.2809 13.402 29.2946 13.2959 29.3989C10.6818 31.9734 7.16457 31.3372 5.42214 29.5703C3.41575 27.5358 3.40105 24.1184 5.3821 22.0536C6.98115 20.3866 10.4948 19.4686 13.3029 22.1825C13.4094 22.2853 13.5732 22.299 13.691 22.2092C14.1377 21.8694 14.5876 21.5273 15.0359 21.1862V30.3984C14.591 30.0597 14.1432 29.7183 13.6872 29.3711V29.3711ZM6.26283 11.1046C6.52066 11.105 6.73915 11.1055 6.95763 11.1041C7.98875 11.0981 9.02146 11.128 10.0503 11.0769C11.0957 11.025 12.0492 10.6863 12.8368 10.1402C11.9626 12.3062 11.0878 14.4745 10.2111 16.6471C8.78104 16.4921 7.32313 16.6727 5.95817 17.1905V11.4057C5.95817 11.2393 6.09568 11.1044 6.26283 11.1046V11.1046ZM5.99957 4.31054C5.99957 4.14501 6.13369 4.01187 6.29993 4.00984C7.44368 3.99612 8.58722 3.91673 9.70723 4.04538C10.6832 4.15738 11.2488 5.0354 11.2181 5.94536C11.1875 6.85554 10.5665 7.65844 9.5826 7.75088C8.52479 7.85029 7.4516 7.78821 6.30106 7.77764C6.13482 7.77607 5.99957 7.64248 5.99957 7.47695V4.31054ZM16.6338 10.8677C17.3768 8.85934 18.1109 6.87435 18.8851 4.78072C18.9781 4.52906 19.3363 4.52838 19.4304 4.7796C20.21 6.86175 20.9505 8.83865 21.7098 10.8662C21.7803 11.0546 21.6403 11.2564 21.4381 11.2564H16.9061C16.7043 11.2564 16.5641 11.056 16.6338 10.8677V10.8677ZM30.93 34.5129C28.1519 31.2965 25.4912 28.2158 22.8049 25.1058C22.7072 24.9929 22.7133 24.824 22.818 24.7179C25.1791 22.3305 27.5091 19.9742 29.9316 17.5246C30.1112 17.3429 29.9809 17.0341 29.7247 17.035C29.2176 17.0365 28.7345 17.0388 28.2598 17.0401C27.7484 15.7661 27.2488 14.521 26.7482 13.2784C25.0667 9.10241 23.388 4.92529 21.6935 0.754235C21.5628 0.432624 21.5512 -0.0144834 20.9716 0.000360195C19.6993 0.0331961 18.4257 0.0134046 17.121 0.0113804C17.0022 0.0113804 16.8943 0.0833494 16.8502 0.193102C16.2149 1.76742 15.5803 3.33972 14.9463 4.91179C14.4831 2.14616 12.2017 0.461412 9.74567 0.433524C7.40478 0.406985 5.06343 0.425427 2.72254 0.427001C2.59678 0.427001 2.4708 0.434423 2.34166 0.442745C2.18266 0.453315 2.05849 0.584883 2.05849 0.74344V19.8029C2.05849 19.8622 2.07704 19.916 2.10621 19.9623C-1.00118 23.7168 -0.664862 29.2452 3.07966 32.6397C6.46389 35.7073 11.5833 35.728 15.0359 32.9574V34.6395C15.0359 34.7976 15.1648 34.9258 15.3238 34.9258H18.7055C18.8643 34.9258 18.9932 34.7976 18.9932 34.6395V27.2373C18.9932 26.9687 19.3318 26.8486 19.5028 27.0562L19.5064 27.0607C21.5354 29.5277 23.5705 31.9897 25.5839 34.4692C25.8931 34.8502 26.2131 35.0196 26.7114 34.9982C27.6299 34.9591 28.5511 34.9872 29.4711 34.9872H30.7115C30.9576 34.9872 31.0903 34.6986 30.93 34.5129V34.5129Z" fill="currentColor"/>
</svg>
