<svg id="pack-logo" width="44" height="34" viewBox="0 0 44 34" fill="none" xmlns="http://www.w3.org/2000/svg">
<path fill-rule="evenodd" clip-rule="evenodd" d="M5.0181 0.559145C4.70356 0.564606 4.54588 0.853055 4.71246 1.1198C5.15839 1.83378 6.00319 3.16919 6.96925 4.6692C8.38576 6.86864 9.54482 8.70372 9.54482 8.70372C9.54482 8.70372 7.36413 8.73931 4.69877 8.73931C2.75883 8.73931 1.30398 8.73931 0.522995 8.73931C0.207266 8.73931 0.050093 9.01826 0.218627 9.28531C1.21178 10.8587 4.25487 15.6445 7.82143 21.1886L14.8413 32.1005C15.4024 32.9727 16.368 33.4999 17.405 33.5008L20.6407 33.5032H24.6889C25.0463 33.5032 25.2624 33.1151 25.0722 32.8124C24.5912 32.0476 23.7606 30.7332 22.8415 29.3051L20.2558 25.2879L30.0069 25.2509L38.9225 25.2172C39.284 25.2159 39.5012 24.8158 39.3056 24.5119L37.1545 21.1708C35.7227 18.947 34.5511 17.0978 34.5511 17.062C34.5511 17.0243 36.6227 16.9881 39.3856 16.9773L43.3845 16.9615C43.746 16.96 43.9631 16.5599 43.7675 16.2561L38.9257 8.73931L34.531 1.91701C33.9701 1.04627 33.0057 0.519546 31.97 0.518246L18.9769 0.501766C10.1635 0.490542 6.37398 0.535575 5.0181 0.559145ZM9.69141 8.81131C9.69141 8.81131 10.8663 10.7084 12.3022 12.9392L14.913 16.9952H24.6588C30.0188 16.9952 34.4044 16.9759 34.4044 16.9525C34.4044 16.8983 29.3565 9.04071 29.2108 8.86825C29.108 8.7467 28.5492 8.73931 19.3967 8.73931C13.1353 8.73931 9.69141 8.81131 9.69141 8.81131Z" fill="currentColor"/>
</svg>
