<svg id="pause" width="24" height="24" viewBox="0 0 24 24" fill="none" xmlns="http://www.w3.org/2000/svg">
<path d="M5.6325 2.10938C5.38188 2.1094 5.14153 2.20897 4.96431 2.38619C4.78709 2.5634 4.68752 2.80375 4.6875 3.05438V20.9456C4.68752 21.1962 4.78709 21.4366 4.96431 21.6138C5.14153 21.791 5.38188 21.8906 5.6325 21.8906H8.71125C8.96187 21.8906 9.20222 21.791 9.37944 21.6138C9.55665 21.4366 9.65623 21.1962 9.65625 20.9456V3.05438C9.65623 2.80375 9.55665 2.5634 9.37944 2.38619C9.20222 2.20897 8.96187 2.1094 8.71125 2.10938H5.6325ZM15.2888 2.10938C15.0381 2.1094 14.7978 2.20897 14.6206 2.38619C14.4433 2.5634 14.3438 2.80375 14.3438 3.05438V20.9456C14.3438 21.1962 14.4433 21.4366 14.6206 21.6138C14.7978 21.791 15.0381 21.8906 15.2888 21.8906H18.3675C18.6181 21.8906 18.8585 21.791 19.0357 21.6138C19.2129 21.4366 19.3125 21.1962 19.3125 20.9456V3.05438C19.3125 2.80375 19.2129 2.5634 19.0357 2.38619C18.8585 2.20897 18.6181 2.1094 18.3675 2.10938H15.2888Z" fill="currentColor"/>
</svg>
