<svg id="sort" width="24" height="24" viewBox="0 0 24 24" fill="none" xmlns="http://www.w3.org/2000/svg">
  <path d="M2.66667 19H7.33333C7.975 19 8.5 18.475 8.5 17.8333C8.5 17.1917 7.975 16.6667 7.33333 16.6667H2.66667C2.025 16.6667 1.5 17.1917 1.5 17.8333C1.5 18.475 2.025 19 2.66667 19ZM1.5 6.16667C1.5 6.80833 2.025 7.33333 2.66667 7.33333H21.3333C21.975 7.33333 22.5 6.80833 22.5 6.16667C22.5 5.525 21.975 5 21.3333 5H2.66667C2.025 5 1.5 5.525 1.5 6.16667ZM2.66667 13.1667H14.3333C14.975 13.1667 15.5 12.6417 15.5 12C15.5 11.3583 14.975 10.8333 14.3333 10.8333H2.66667C2.025 10.8333 1.5 11.3583 1.5 12C1.5 12.6417 2.025 13.1667 2.66667 13.1667Z" fill="currentColor"/>
</svg>
